<svg xmlns="http://www.w3.org/2000/svg" width="35.153" height="27.341" viewBox="0 0 35.153 27.341">
  <path id="address-card-solid" d="M32.224,32H2.929A2.93,2.93,0,0,0,0,34.929V56.412a2.93,2.93,0,0,0,2.929,2.929H32.224a2.93,2.93,0,0,0,2.929-2.929V34.929A2.93,2.93,0,0,0,32.224,32ZM10.741,37.859a3.906,3.906,0,1,1-3.906,3.906A3.91,3.91,0,0,1,10.741,37.859Zm6.835,14.452a1.28,1.28,0,0,1-1.367,1.172H5.273a1.28,1.28,0,0,1-1.367-1.172V51.139a3.843,3.843,0,0,1,4.1-3.515h.305a6.286,6.286,0,0,0,4.858,0h.305a3.843,3.843,0,0,1,4.1,3.515Zm13.671-3.222a.49.49,0,0,1-.488.488H21.971a.49.49,0,0,1-.488-.488v-.976a.49.49,0,0,1,.488-.488h8.788a.49.49,0,0,1,.488.488Zm0-3.906a.49.49,0,0,1-.488.488H21.971a.49.49,0,0,1-.488-.488v-.976a.49.49,0,0,1,.488-.488h8.788a.49.49,0,0,1,.488.488Zm0-3.906a.49.49,0,0,1-.488.488H21.971a.49.49,0,0,1-.488-.488V40.3a.49.49,0,0,1,.488-.488h8.788a.49.49,0,0,1,.488.488Z" transform="translate(0 -32)" fill="#e7e8e9"/>
</svg>
