<svg xmlns="http://www.w3.org/2000/svg" width="34.936" height="34.936" viewBox="0 0 34.936 34.936">
  <path id="globe-africa-solid" d="M17.468,8A17.468,17.468,0,1,0,34.936,25.468,17.468,17.468,0,0,0,17.468,8Zm11.27,15.179v.488a1.091,1.091,0,0,1-.6.976l-1.084.542a1.091,1.091,0,0,1-1.094-.068l-1.283-.855a1.093,1.093,0,0,0-.951-.127l-.187.062a1.091,1.091,0,0,0-.563,1.641l.933,1.4a1.091,1.091,0,0,0,.908.486h.578a1.092,1.092,0,0,1,1.092,1.092v.8a1.093,1.093,0,0,1-.218.655l-1.32,1.759a1.1,1.1,0,0,0-.2.453l-.3,1.608a1.094,1.094,0,0,1-.335.6,11.242,11.242,0,0,0-1.761,2.054l-.918,1.377a1.954,1.954,0,0,1-3.375-.21,5.557,5.557,0,0,1-.587-2.486V33.322a1.092,1.092,0,0,0-1.092-1.092H14.553a3.848,3.848,0,0,1-3.848-3.848v-.99a3.849,3.849,0,0,1,1.539-3.078l1.943-1.457a3.85,3.85,0,0,1,2.309-.77h.063a3.84,3.84,0,0,1,1.721.406l1.037.518a1.091,1.091,0,0,0,.833.059l3.332-1.111a1.092,1.092,0,0,0-.345-2.127h-.711a1.091,1.091,0,0,1-.772-.32l-.487-.487a1.091,1.091,0,0,0-.772-.32H14.052a1.092,1.092,0,0,1-1.092-1.092V17.3a1.092,1.092,0,0,1,.827-1.059L14.8,15.99a1.094,1.094,0,0,0,.644-.454l.569-.853a1.091,1.091,0,0,1,.908-.486h1.705a1.092,1.092,0,0,0,1.092-1.092V11.577a14.107,14.107,0,0,1,11.4,10.51h-1.3A1.092,1.092,0,0,0,28.738,23.179Z" transform="translate(0 -8)" fill="#e7e8e9"/>
</svg>
