<svg xmlns="http://www.w3.org/2000/svg" width="29.418" height="22.876" viewBox="0 0 29.418 22.876">
  <path id="home-solid_2_" data-name="home-solid (2)" d="M14.3,37.985,4.888,45.74v8.37a.817.817,0,0,0,.817.817l5.723-.015a.817.817,0,0,0,.813-.817V49.207a.817.817,0,0,1,.817-.817h3.268a.817.817,0,0,1,.817.817v4.884a.817.817,0,0,0,.817.82l5.721.016a.817.817,0,0,0,.817-.817V45.734l-9.414-7.749a.623.623,0,0,0-.781,0Zm14.873,5.271-4.269-3.519V32.663a.613.613,0,0,0-.613-.613h-2.86a.613.613,0,0,0-.613.613v3.708l-4.572-3.762a2.451,2.451,0,0,0-3.115,0L.207,43.256a.613.613,0,0,0-.082.863l1.3,1.583a.613.613,0,0,0,.864.083L14.3,35.891a.623.623,0,0,1,.781,0L27.1,45.785a.613.613,0,0,0,.863-.082l1.3-1.583a.613.613,0,0,0-.087-.865Z" transform="translate(0.015 -32.05)" fill="#e7e8e9"/>
</svg>
