<?xml version="1.0" standalone="no"?>
<!DOCTYPE svg PUBLIC "-//W3C//DTD SVG 20010904//EN"
 "http://www.w3.org/TR/2001/REC-SVG-20010904/DTD/svg10.dtd">
<svg version="1.0" xmlns="http://www.w3.org/2000/svg"
 width="400.000000pt" height="400.000000pt" viewBox="0 0 400.000000 400.000000"
 preserveAspectRatio="xMidYMid meet">
<metadata>
Created by potrace 1.14, written by Peter Selinger 2001-2017
</metadata>
<g transform="translate(0.000000,400.000000) scale(0.100000,-0.100000)"
fill="#000000" stroke="none">
<path d="M0 2000 l0 -2000 2000 0 2000 0 0 2000 0 2000 -2000 0 -2000 0 0
-2000z m1915 1289 c130 -18 225 -47 340 -103 162 -80 248 -160 320 -297 47
-91 67 -175 68 -289 0 -112 -14 -167 -75 -283 -60 -113 -211 -266 -318 -322
-41 -21 -78 -43 -82 -49 -9 -13 104 -234 186 -364 99 -155 207 -291 340 -427
186 -189 360 -306 479 -321 56 -8 72 -32 61 -90 -6 -30 -10 -34 -50 -40 -126
-19 -356 29 -509 105 -236 118 -387 275 -685 711 -145 212 -188 267 -250 323
-61 55 -98 67 -207 67 -73 0 -83 -2 -97 -22 -14 -19 -16 -73 -16 -388 0 -370
9 -509 36 -566 20 -41 98 -77 221 -100 101 -19 110 -28 97 -93 -8 -36 12 -35
-269 -21 -130 7 -273 6 -454 -1 -296 -13 -283 -16 -279 60 l3 45 76 13 c42 7
102 22 134 34 97 36 90 -49 93 1054 3 975 -1 1122 -33 1172 -16 24 -140 67
-227 78 l-48 6 0 42 c0 74 -13 71 282 64 144 -3 346 -2 448 2 283 12 332 12
415 0z"/>
<path d="M1516 3109 c-27 -4 -55 -14 -62 -21 -25 -25 -34 -155 -34 -530 l0
-376 24 -29 c30 -35 70 -48 196 -64 127 -15 271 -7 333 20 155 67 269 203 303
360 18 86 18 148 -1 257 -36 206 -147 326 -350 379 -65 16 -319 19 -409 4z"/>
</g>
</svg>
