<svg xmlns="http://www.w3.org/2000/svg" width="224.04" height="152.147" viewBox="0 0 168.03 114.11" xmlns:v="https://vecta.io/nano"><style><![CDATA[.B{fill:rgb(36.468506%,52.941895%,63.136292%)}.C{fill-rule:evenodd}.D{fill:rgb(97.253418%,59.608459%,11.372375%)}]]></style><defs><clipPath id="A"><path d="M43 75h26v39.109H43zm0 0"/></clipPath><clipPath id="B"><path d="M99 0h69.031v68H99zm0 0"/></clipPath><clipPath id="C"><path d="M157 99h11.031v5H157zm0 0"/></clipPath></defs><path d="M40.398 103.953h-6.484c-.23-10.941-.859-21.23-1.895-30.871h-.055l-9.871 30.871h-4.937L7.344 73.082h-.055c-.73 9.258-1.187 19.547-1.379 30.871H0c.383-13.77 1.336-26.684 2.867-38.734h8.035l9.355 28.461h.059l9.41-28.461h7.688c1.684 14.113 2.676 27.027 2.984 38.734" class="B"/><g clip-path="url(#A)" class="B"><path d="M68.516 75.375c-2.641 14.324-6.121 24.734-10.445 31.23-3.367 5.004-7.055 7.504-11.074 7.504-1.07 0-2.391-.324-3.961-.961v-3.457c.766.113 1.668.172 2.699.172 1.875 0 3.387-.516 4.535-1.551 1.375-1.258 2.063-2.676 2.063-4.246 0-1.07-.535-3.27-1.605-6.598l-7.113-22.094h6.367l5.105 16.523c1.148 3.754 1.625 6.375 1.438 7.867 2.793-7.461 4.742-15.59 5.852-24.391"/></g><g class="D"><path d="M154.82 103.953h-18.422V65.219h6.199v33.969h12.223"/><path d="M108.512 96.203c-1.566-2.523-2.352-6.574-2.352-12.16 0-9.758 2.965-14.637 8.895-14.637 3.098 0 5.375 1.168 6.828 3.5 1.566 2.527 2.352 6.543 2.352 12.051 0 9.832-2.965 14.75-8.895 14.75-3.098 0-5.375-1.164-6.828-3.504m23.07 8.684l-7.121-3.508c.633-.523 1.238-1.082 1.781-1.73 3.023-3.555 4.535-8.816 4.535-15.781 0-12.812-5.031-19.223-15.09-19.223-4.937 0-8.781 1.625-11.535 4.879-3.023 3.559-4.535 8.797-4.535 15.723 0 6.809 1.336 11.805 4.016 14.977 2.449 2.867 6.141 4.305 11.078 4.305 1.844 0 3.535-.227 5.07-.68l9.273 5.395" class="C"/><path d="M96.914 93.219c0 3.285-1.203 5.98-3.609 8.09-2.41 2.102-5.645 3.156-9.695 3.156-3.789 0-7.461-1.215-11.02-3.617l1.664-3.328c3.063 1.531 5.832 2.293 8.32 2.293 2.332 0 4.156-.52 5.48-1.543a5.28 5.28 0 0 0 2.105-4.305c0-2.301-1.602-4.266-4.547-5.914l-8.145-4.602c-2.945-2.148-4.418-4.453-4.418-8.246 0-3.137 1.098-5.672 3.297-7.602s5.043-2.902 8.52-2.902c3.598 0 6.867.961 9.813 2.875l-1.496 3.32c-2.52-1.066-5.004-1.602-7.457-1.602-1.984 0-3.516.477-4.586 1.438-1.074.949-1.738 2.176-1.738 3.668 0 2.293 1.641 4.285 4.664 5.965l8.316 4.668c3.023 2.141 4.531 4.422 4.531 8.188"/></g><g clip-path="url(#B)" class="B C"><path d="M162.598 52.242c-3.746-.094-6.645.281-9.078 1.313-.703.277-1.824.277-1.922 1.168.379.375.422.98.754 1.5.559.934 1.539 2.195 2.43 2.855l3 2.148c1.82 1.129 3.883 1.781 5.656 2.906 1.035.652 2.059 1.496 3.094 2.199.512.375.84.984 1.496 1.215v-.141c-.328-.422-.422-1.031-.746-1.5l-1.406-1.355c-1.359-1.824-3.047-3.414-4.867-4.727-1.5-1.031-4.777-2.434-5.383-4.16l-.094-.098c1.027-.094 2.25-.469 3.23-.754 1.59-.418 3.039-.324 4.676-.746l2.254-.652v-.426c-.848-.84-1.453-1.965-2.344-2.758-2.383-2.059-5.008-4.07-7.723-5.758-1.453-.937-3.324-1.543-4.871-2.34-.559-.281-1.492-.422-1.82-.891-.844-1.031-1.312-2.387-1.922-3.602l-3.836-8.148c-.844-1.824-1.359-3.645-2.387-5.332-4.824-7.957-10.062-12.773-18.113-17.504-1.734-.984-3.793-1.406-5.988-1.918l-3.512-.187c-.75-.328-1.5-1.219-2.156-1.641-2.668-1.684-9.543-5.332-11.512-.516-1.262 3.047 1.871 6.039 2.949 7.586.797 1.074 1.828 2.293 2.387 3.508.328.797.422 1.641.75 2.48.746 2.059 1.449 4.355 2.434 6.273.512.984 1.074 2.016 1.73 2.898.375.52 1.027.75 1.172 1.594-.656.934-.707 2.34-1.078 3.512-1.687 5.289-1.031 11.84 1.355 15.727.746 1.168 2.527 3.742 4.914 2.758 2.109-.84 1.641-3.508 2.25-5.848.137-.566.043-.937.324-1.312v.098l1.922 3.883c1.449 2.289 3.977 4.68 6.086 6.27 1.117.844 2.008 2.293 3.414 2.809v-.141h-.094c-.281-.422-.703-.609-1.078-.934-.84-.844-1.773-1.875-2.434-2.809-1.965-2.621-3.699-5.523-5.238-8.52-.754-1.453-1.406-3.043-2.016-4.496-.281-.559-.281-1.402-.75-1.684-.703 1.031-1.73 1.922-2.242 3.18-.891 2.016-.984 4.496-1.312 7.07-.187.051-.094 0-.187.094-1.496-.375-2.012-1.918-2.574-3.227-1.406-3.324-1.641-8.66-.422-12.5.328-.98 1.734-4.066 1.172-5.004-.285-.895-1.219-1.402-1.734-2.109-.605-.891-1.266-2.012-1.684-2.992-1.121-2.621-1.687-5.527-2.902-8.145-.559-1.219-1.543-2.484-2.336-3.605-.895-1.262-1.875-2.152-2.578-3.648-.23-.516-.559-1.359-.187-1.918.094-.375.281-.516.656-.609.605-.516 2.34.137 2.945.418 1.734.699 3.188 1.359 4.637 2.34.652.469 1.355 1.359 2.195 1.594h.988c1.496.324 3.18.09 4.586.516 2.48.793 4.727 1.965 6.738 3.227 6.129 3.887 11.188 9.41 14.602 16.008.563 1.074.797 2.059 1.313 3.18.98 2.301 2.199 4.641 3.18 6.883.984 2.199 1.922 4.445 3.328 6.273.699.98 3.508 1.496 4.773 2.012.934.418 2.387.793 3.23 1.309 1.59.98 3.18 2.105 4.68 3.184.746.563 3.086 1.73 3.227 2.668"/></g><path d="M114.859 11.57a7.44 7.44 0 0 0-1.922.234v.094h.094c.379.746 1.031 1.266 1.496 1.922l1.078 2.242.094-.094c.66-.465.988-1.215.988-2.34-.285-.328-.328-.656-.566-.984-.277-.465-.887-.699-1.262-1.074" class="B C"/><g clip-path="url(#C)" class="D"><path d="M159.242 103.949h1.027v-3.941h1.344v-.805h-3.766v.805h1.395zm7.816 0h.969v-4.746h-1.457l-1.184 3.234-1.293-3.234h-1.402v4.746h.918v-3.609h.051l1.352 3.609h.699l1.348-3.609"/></g></svg>